<svg id="SvgjsSvg48682" width="450" height="52" xmlns="http://www.w3.org/2000/svg" version="1.1" xmlns:xlink="http://www.w3.org/1999/xlink" xmlns:svgjs="http://svgjs.com/svgjs"><defs id="SvgjsDefs48683"></defs><!--?xml version="1.0" encoding="UTF-8"?--> <svg width="450px" height="52px" viewBox="0 0 869.7205757832346 100" version="1.1" xmlns="http://www.w3.org/2000/svg" xmlns:xlink="http://www.w3.org/1999/xlink"> <g id="artboard" stroke="#000000" stroke-width="1" fill="none" fill-rule="evenodd"> <path d="M36.15,65 L36.15,58.43 C33.45,63.02 28.5,65.99 21.93,65.99 C10.23,65.99 0.24,57.44 0.24,41.33 C0.24,25.85 10.59,17.3 22.02,17.3 C28.5,17.3 33.27,19.91 35.97,24.05 L35.97,0.2 L47.58,0.2 L47.58,65 L36.15,65 Z M24.18,56.45 C30.84,56.45 36.24,50.87 36.24,41.33 C36.24,32.15 31.11,26.84 24.18,26.84 C17.16,26.84 12.12,32.24 12.12,41.33 C12.12,50.87 17.16,56.45 24.18,56.45 Z" id="d" transform="matrix(1,0,0,1,5,5)" stroke="#000000" stroke-width="1px"></path><path d="M36.15,65 L36.15,58.43 C33.45,63.02 28.5,65.99 21.93,65.99 C10.23,65.99 0.24,57.44 0.24,41.33 C0.24,25.85 10.59,17.3 22.02,17.3 C28.5,17.3 33.27,19.91 35.97,24.05 L35.97,0.2 L47.58,0.2 L47.58,65 L36.15,65 Z M24.18,56.45 C30.84,56.45 36.24,50.87 36.24,41.33 C36.24,32.15 31.11,26.84 24.18,26.84 C17.16,26.84 12.12,32.24 12.12,41.33 C12.12,50.87 17.16,56.45 24.18,56.45 Z" id="SvgjsPath48716" transform="matrix(1,0,0,1,57,5)" stroke="#000000" stroke-width="1px"></path><path d="M36.15,65 L36.15,58.43 C33.45,63.02 28.5,65.99 21.93,65.99 C10.23,65.99 0.24,57.44 0.24,41.33 C0.24,25.85 10.59,17.3 22.02,17.3 C28.5,17.3 33.27,19.91 35.97,24.05 L35.97,0.2 L47.58,0.2 L47.58,65 L36.15,65 Z M24.18,56.45 C30.84,56.45 36.24,50.87 36.24,41.33 C36.24,32.15 31.11,26.84 24.18,26.84 C17.16,26.84 12.12,32.24 12.12,41.33 C12.12,50.87 17.16,56.45 24.18,56.45 Z" id="SvgjsPath48714" transform="matrix(1,0,0,1,53,5)" stroke="#000000" stroke-width="1px"></path><path d="M36.15,65 L36.15,58.43 C33.45,63.02 28.5,65.99 21.93,65.99 C10.23,65.99 0.24,57.44 0.24,41.33 C0.24,25.85 10.59,17.3 22.02,17.3 C28.5,17.3 33.27,19.91 35.97,24.05 L35.97,0.2 L47.58,0.2 L47.58,65 L36.15,65 Z M24.18,56.45 C30.84,56.45 36.24,50.87 36.24,41.33 C36.24,32.15 31.11,26.84 24.18,26.84 C17.16,26.84 12.12,32.24 12.12,41.33 C12.12,50.87 17.16,56.45 24.18,56.45 Z" id="SvgjsPath48712" transform="matrix(1,0,0,1,49,5)" stroke="#000000" stroke-width="1px"></path><path d="M36.15,65 L36.15,58.43 C33.45,63.02 28.5,65.99 21.93,65.99 C10.23,65.99 0.24,57.44 0.24,41.33 C0.24,25.85 10.59,17.3 22.02,17.3 C28.5,17.3 33.27,19.91 35.97,24.05 L35.97,0.2 L47.58,0.2 L47.58,65 L36.15,65 Z M24.18,56.45 C30.84,56.45 36.24,50.87 36.24,41.33 C36.24,32.15 31.11,26.84 24.18,26.84 C17.16,26.84 12.12,32.24 12.12,41.33 C12.12,50.87 17.16,56.45 24.18,56.45 Z" id="SvgjsPath48710" transform="matrix(1,0,0,1,45,5)" stroke="#000000" stroke-width="1px"></path><path d="M36.15,65 L36.15,58.43 C33.45,63.02 28.5,65.99 21.93,65.99 C10.23,65.99 0.24,57.44 0.24,41.33 C0.24,25.85 10.59,17.3 22.02,17.3 C28.5,17.3 33.27,19.91 35.97,24.05 L35.97,0.2 L47.58,0.2 L47.58,65 L36.15,65 Z M24.18,56.45 C30.84,56.45 36.24,50.87 36.24,41.33 C36.24,32.15 31.11,26.84 24.18,26.84 C17.16,26.84 12.12,32.24 12.12,41.33 C12.12,50.87 17.16,56.45 24.18,56.45 Z" id="SvgjsPath48708" transform="matrix(1,0,0,1,41,5)" stroke="#000000" stroke-width="1px"></path><path d="M36.15,65 L36.15,58.43 C33.45,63.02 28.5,65.99 21.93,65.99 C10.23,65.99 0.24,57.44 0.24,41.33 C0.24,25.85 10.59,17.3 22.02,17.3 C28.5,17.3 33.27,19.91 35.97,24.05 L35.97,0.2 L47.58,0.2 L47.58,65 L36.15,65 Z M24.18,56.45 C30.84,56.45 36.24,50.87 36.24,41.33 C36.24,32.15 31.11,26.84 24.18,26.84 C17.16,26.84 12.12,32.24 12.12,41.33 C12.12,50.87 17.16,56.45 24.18,56.45 Z" id="SvgjsPath48706" transform="matrix(1,0,0,1,37,5)" stroke="#000000" stroke-width="1px"></path><path d="M36.15,65 L36.15,58.43 C33.45,63.02 28.5,65.99 21.93,65.99 C10.23,65.99 0.24,57.44 0.24,41.33 C0.24,25.85 10.59,17.3 22.02,17.3 C28.5,17.3 33.27,19.91 35.97,24.05 L35.97,0.2 L47.58,0.2 L47.58,65 L36.15,65 Z M24.18,56.45 C30.84,56.45 36.24,50.87 36.24,41.33 C36.24,32.15 31.11,26.84 24.18,26.84 C17.16,26.84 12.12,32.24 12.12,41.33 C12.12,50.87 17.16,56.45 24.18,56.45 Z" id="SvgjsPath48704" transform="matrix(1,0,0,1,33,5)" stroke="#000000" stroke-width="1px"></path><path d="M36.15,65 L36.15,58.43 C33.45,63.02 28.5,65.99 21.93,65.99 C10.23,65.99 0.24,57.44 0.24,41.33 C0.24,25.85 10.59,17.3 22.02,17.3 C28.5,17.3 33.27,19.91 35.97,24.05 L35.97,0.2 L47.58,0.2 L47.58,65 L36.15,65 Z M24.18,56.45 C30.84,56.45 36.24,50.87 36.24,41.33 C36.24,32.15 31.11,26.84 24.18,26.84 C17.16,26.84 12.12,32.24 12.12,41.33 C12.12,50.87 17.16,56.45 24.18,56.45 Z" id="SvgjsPath48702" transform="matrix(1,0,0,1,29,5)" stroke="#000000" stroke-width="1px"></path><path d="M36.15,65 L36.15,58.43 C33.45,63.02 28.5,65.99 21.93,65.99 C10.23,65.99 0.24,57.44 0.24,41.33 C0.24,25.85 10.59,17.3 22.02,17.3 C28.5,17.3 33.27,19.91 35.97,24.05 L35.97,0.2 L47.58,0.2 L47.58,65 L36.15,65 Z M24.18,56.45 C30.84,56.45 36.24,50.87 36.24,41.33 C36.24,32.15 31.11,26.84 24.18,26.84 C17.16,26.84 12.12,32.24 12.12,41.33 C12.12,50.87 17.16,56.45 24.18,56.45 Z" id="SvgjsPath48700" transform="matrix(1,0,0,1,25,5)" stroke="#000000" stroke-width="1px"></path><path d="M36.15,65 L36.15,58.43 C33.45,63.02 28.5,65.99 21.93,65.99 C10.23,65.99 0.24,57.44 0.24,41.33 C0.24,25.85 10.59,17.3 22.02,17.3 C28.5,17.3 33.27,19.91 35.97,24.05 L35.97,0.2 L47.58,0.2 L47.58,65 L36.15,65 Z M24.18,56.45 C30.84,56.45 36.24,50.87 36.24,41.33 C36.24,32.15 31.11,26.84 24.18,26.84 C17.16,26.84 12.12,32.24 12.12,41.33 C12.12,50.87 17.16,56.45 24.18,56.45 Z" id="SvgjsPath48698" transform="matrix(1,0,0,1,21,5)" stroke="#000000" stroke-width="1px"></path><path d="M36.15,65 L36.15,58.43 C33.45,63.02 28.5,65.99 21.93,65.99 C10.23,65.99 0.24,57.44 0.24,41.33 C0.24,25.85 10.59,17.3 22.02,17.3 C28.5,17.3 33.27,19.91 35.97,24.05 L35.97,0.2 L47.58,0.2 L47.58,65 L36.15,65 Z M24.18,56.45 C30.84,56.45 36.24,50.87 36.24,41.33 C36.24,32.15 31.11,26.84 24.18,26.84 C17.16,26.84 12.12,32.24 12.12,41.33 C12.12,50.87 17.16,56.45 24.18,56.45 Z" id="SvgjsPath48696" transform="matrix(1,0,0,1,17,5)" stroke="#000000" stroke-width="1px"></path><path d="M36.15,65 L36.15,58.43 C33.45,63.02 28.5,65.99 21.93,65.99 C10.23,65.99 0.24,57.44 0.24,41.33 C0.24,25.85 10.59,17.3 22.02,17.3 C28.5,17.3 33.27,19.91 35.97,24.05 L35.97,0.2 L47.58,0.2 L47.58,65 L36.15,65 Z M24.18,56.45 C30.84,56.45 36.24,50.87 36.24,41.33 C36.24,32.15 31.11,26.84 24.18,26.84 C17.16,26.84 12.12,32.24 12.12,41.33 C12.12,50.87 17.16,56.45 24.18,56.45 Z" id="SvgjsPath48694" transform="matrix(1,0,0,1,13,5)" stroke="#000000" stroke-width="1px"></path><path d="M36.15,65 L36.15,58.43 C33.45,63.02 28.5,65.99 21.93,65.99 C10.23,65.99 0.24,57.44 0.24,41.33 C0.24,25.85 10.59,17.3 22.02,17.3 C28.5,17.3 33.27,19.91 35.97,24.05 L35.97,0.2 L47.58,0.2 L47.58,65 L36.15,65 Z M24.18,56.45 C30.84,56.45 36.24,50.87 36.24,41.33 C36.24,32.15 31.11,26.84 24.18,26.84 C17.16,26.84 12.12,32.24 12.12,41.33 C12.12,50.87 17.16,56.45 24.18,56.45 Z" id="SvgjsPath48691" transform="matrix(1,0,0,1,9,5)" stroke="#000000" stroke-width="1px"></path> <path d="M0,11 L0,0.2 L11.7,0.2 L11.7,11 L0,11 Z M0.09,65 L0.09,18.38 L11.61,18.38 L11.61,65 L0.09,65 Z" id="i" transform="matrix(1,0,0,1,114.3935987978038,5)" stroke="#000000" stroke-width="1px"></path><path d="M0,11 L0,0.2 L11.7,0.2 L11.7,11 L0,11 Z M0.09,65 L0.09,18.38 L11.61,18.38 L11.61,65 L0.09,65 Z" id="SvgjsPath48806" transform="matrix(1,0,0,1,294.3935987978038,5)" stroke="#000000" stroke-width="1px"></path><path d="M0,11 L0,0.2 L11.7,0.2 L11.7,11 L0,11 Z M0.09,65 L0.09,18.38 L11.61,18.38 L11.61,65 L0.09,65 Z" id="SvgjsPath48804" transform="matrix(1,0,0,1,290.3935987978038,5)" stroke="#000000" stroke-width="1px"></path><path d="M0,11 L0,0.2 L11.7,0.2 L11.7,11 L0,11 Z M0.09,65 L0.09,18.38 L11.61,18.38 L11.61,65 L0.09,65 Z" id="SvgjsPath48802" transform="matrix(1,0,0,1,286.3935987978038,5)" stroke="#000000" stroke-width="1px"></path><path d="M0,11 L0,0.2 L11.7,0.2 L11.7,11 L0,11 Z M0.09,65 L0.09,18.38 L11.61,18.38 L11.61,65 L0.09,65 Z" id="SvgjsPath48800" transform="matrix(1,0,0,1,282.3935987978038,5)" stroke="#000000" stroke-width="1px"></path><path d="M0,11 L0,0.2 L11.7,0.2 L11.7,11 L0,11 Z M0.09,65 L0.09,18.38 L11.61,18.38 L11.61,65 L0.09,65 Z" id="SvgjsPath48798" transform="matrix(1,0,0,1,278.3935987978038,5)" stroke="#000000" stroke-width="1px"></path><path d="M0,11 L0,0.2 L11.7,0.2 L11.7,11 L0,11 Z M0.09,65 L0.09,18.38 L11.61,18.38 L11.61,65 L0.09,65 Z" id="SvgjsPath48796" transform="matrix(1,0,0,1,274.3935987978038,5)" stroke="#000000" stroke-width="1px"></path><path d="M0,11 L0,0.2 L11.7,0.2 L11.7,11 L0,11 Z M0.09,65 L0.09,18.38 L11.61,18.38 L11.61,65 L0.09,65 Z" id="SvgjsPath48794" transform="matrix(1,0,0,1,270.3935987978038,5)" stroke="#000000" stroke-width="1px"></path><path d="M0,11 L0,0.2 L11.7,0.2 L11.7,11 L0,11 Z M0.09,65 L0.09,18.38 L11.61,18.38 L11.61,65 L0.09,65 Z" id="SvgjsPath48792" transform="matrix(1,0,0,1,266.3935987978038,5)" stroke="#000000" stroke-width="1px"></path><path d="M0,11 L0,0.2 L11.7,0.2 L11.7,11 L0,11 Z M0.09,65 L0.09,18.38 L11.61,18.38 L11.61,65 L0.09,65 Z" id="SvgjsPath48790" transform="matrix(1,0,0,1,262.3935987978038,5)" stroke="#000000" stroke-width="1px"></path><path d="M0,11 L0,0.2 L11.7,0.2 L11.7,11 L0,11 Z M0.09,65 L0.09,18.38 L11.61,18.38 L11.61,65 L0.09,65 Z" id="SvgjsPath48788" transform="matrix(1,0,0,1,258.3935987978038,5)" stroke="#000000" stroke-width="1px"></path><path d="M0,11 L0,0.2 L11.7,0.2 L11.7,11 L0,11 Z M0.09,65 L0.09,18.38 L11.61,18.38 L11.61,65 L0.09,65 Z" id="SvgjsPath48786" transform="matrix(1,0,0,1,254.3935987978038,5)" stroke="#000000" stroke-width="1px"></path><path d="M0,11 L0,0.2 L11.7,0.2 L11.7,11 L0,11 Z M0.09,65 L0.09,18.38 L11.61,18.38 L11.61,65 L0.09,65 Z" id="SvgjsPath48784" transform="matrix(1,0,0,1,250.3935987978038,5)" stroke="#000000" stroke-width="1px"></path><path d="M0,11 L0,0.2 L11.7,0.2 L11.7,11 L0,11 Z M0.09,65 L0.09,18.38 L11.61,18.38 L11.61,65 L0.09,65 Z" id="SvgjsPath48782" transform="matrix(1,0,0,1,246.3935987978038,5)" stroke="#000000" stroke-width="1px"></path><path d="M0,11 L0,0.2 L11.7,0.2 L11.7,11 L0,11 Z M0.09,65 L0.09,18.38 L11.61,18.38 L11.61,65 L0.09,65 Z" id="SvgjsPath48780" transform="matrix(1,0,0,1,242.3935987978038,5)" stroke="#000000" stroke-width="1px"></path><path d="M0,11 L0,0.2 L11.7,0.2 L11.7,11 L0,11 Z M0.09,65 L0.09,18.38 L11.61,18.38 L11.61,65 L0.09,65 Z" id="SvgjsPath48778" transform="matrix(1,0,0,1,238.3935987978038,5)" stroke="#000000" stroke-width="1px"></path><path d="M0,11 L0,0.2 L11.7,0.2 L11.7,11 L0,11 Z M0.09,65 L0.09,18.38 L11.61,18.38 L11.61,65 L0.09,65 Z" id="SvgjsPath48776" transform="matrix(1,0,0,1,234.3935987978038,5)" stroke="#000000" stroke-width="1px"></path><path d="M0,11 L0,0.2 L11.7,0.2 L11.7,11 L0,11 Z M0.09,65 L0.09,18.38 L11.61,18.38 L11.61,65 L0.09,65 Z" id="SvgjsPath48774" transform="matrix(1,0,0,1,230.3935987978038,5)" stroke="#000000" stroke-width="1px"></path><path d="M0,11 L0,0.2 L11.7,0.2 L11.7,11 L0,11 Z M0.09,65 L0.09,18.38 L11.61,18.38 L11.61,65 L0.09,65 Z" id="SvgjsPath48772" transform="matrix(1,0,0,1,226.3935987978038,5)" stroke="#000000" stroke-width="1px"></path><path d="M0,11 L0,0.2 L11.7,0.2 L11.7,11 L0,11 Z M0.09,65 L0.09,18.38 L11.61,18.38 L11.61,65 L0.09,65 Z" id="SvgjsPath48770" transform="matrix(1,0,0,1,222.3935987978038,5)" stroke="#000000" stroke-width="1px"></path><path d="M0,11 L0,0.2 L11.7,0.2 L11.7,11 L0,11 Z M0.09,65 L0.09,18.38 L11.61,18.38 L11.61,65 L0.09,65 Z" id="SvgjsPath48768" transform="matrix(1,0,0,1,218.3935987978038,5)" stroke="#000000" stroke-width="1px"></path><path d="M0,11 L0,0.2 L11.7,0.2 L11.7,11 L0,11 Z M0.09,65 L0.09,18.38 L11.61,18.38 L11.61,65 L0.09,65 Z" id="SvgjsPath48766" transform="matrix(1,0,0,1,214.3935987978038,5)" stroke="#000000" stroke-width="1px"></path><path d="M0,11 L0,0.2 L11.7,0.2 L11.7,11 L0,11 Z M0.09,65 L0.09,18.38 L11.61,18.38 L11.61,65 L0.09,65 Z" id="SvgjsPath48764" transform="matrix(1,0,0,1,210.3935987978038,5)" stroke="#000000" stroke-width="1px"></path><path d="M0,11 L0,0.2 L11.7,0.2 L11.7,11 L0,11 Z M0.09,65 L0.09,18.38 L11.61,18.38 L11.61,65 L0.09,65 Z" id="SvgjsPath48762" transform="matrix(1,0,0,1,206.3935987978038,5)" stroke="#000000" stroke-width="1px"></path><path d="M0,11 L0,0.2 L11.7,0.2 L11.7,11 L0,11 Z M0.09,65 L0.09,18.38 L11.61,18.38 L11.61,65 L0.09,65 Z" id="SvgjsPath48760" transform="matrix(1,0,0,1,202.3935987978038,5)" stroke="#000000" stroke-width="1px"></path><path d="M0,11 L0,0.2 L11.7,0.2 L11.7,11 L0,11 Z M0.09,65 L0.09,18.38 L11.61,18.38 L11.61,65 L0.09,65 Z" id="SvgjsPath48758" transform="matrix(1,0,0,1,198.3935987978038,5)" stroke="#000000" stroke-width="1px"></path><path d="M0,11 L0,0.2 L11.7,0.2 L11.7,11 L0,11 Z M0.09,65 L0.09,18.38 L11.61,18.38 L11.61,65 L0.09,65 Z" id="SvgjsPath48756" transform="matrix(1,0,0,1,194.3935987978038,5)" stroke="#000000" stroke-width="1px"></path><path d="M0,11 L0,0.2 L11.7,0.2 L11.7,11 L0,11 Z M0.09,65 L0.09,18.38 L11.61,18.38 L11.61,65 L0.09,65 Z" id="SvgjsPath48754" transform="matrix(1,0,0,1,190.3935987978038,5)" stroke="#000000" stroke-width="1px"></path><path d="M0,11 L0,0.2 L11.7,0.2 L11.7,11 L0,11 Z M0.09,65 L0.09,18.38 L11.61,18.38 L11.61,65 L0.09,65 Z" id="SvgjsPath48752" transform="matrix(1,0,0,1,186.3935987978038,5)" stroke="#000000" stroke-width="1px"></path><path d="M0,11 L0,0.2 L11.7,0.2 L11.7,11 L0,11 Z M0.09,65 L0.09,18.38 L11.61,18.38 L11.61,65 L0.09,65 Z" id="SvgjsPath48750" transform="matrix(1,0,0,1,182.3935987978038,5)" stroke="#000000" stroke-width="1px"></path><path d="M0,11 L0,0.2 L11.7,0.2 L11.7,11 L0,11 Z M0.09,65 L0.09,18.38 L11.61,18.38 L11.61,65 L0.09,65 Z" id="SvgjsPath48748" transform="matrix(1,0,0,1,178.3935987978038,5)" stroke="#000000" stroke-width="1px"></path><path d="M0,11 L0,0.2 L11.7,0.2 L11.7,11 L0,11 Z M0.09,65 L0.09,18.38 L11.61,18.38 L11.61,65 L0.09,65 Z" id="SvgjsPath48746" transform="matrix(1,0,0,1,174.3935987978038,5)" stroke="#000000" stroke-width="1px"></path><path d="M0,11 L0,0.2 L11.7,0.2 L11.7,11 L0,11 Z M0.09,65 L0.09,18.38 L11.61,18.38 L11.61,65 L0.09,65 Z" id="SvgjsPath48744" transform="matrix(1,0,0,1,170.3935987978038,5)" stroke="#000000" stroke-width="1px"></path><path d="M0,11 L0,0.2 L11.7,0.2 L11.7,11 L0,11 Z M0.09,65 L0.09,18.38 L11.61,18.38 L11.61,65 L0.09,65 Z" id="SvgjsPath48742" transform="matrix(1,0,0,1,166.3935987978038,5)" stroke="#000000" stroke-width="1px"></path><path d="M0,11 L0,0.2 L11.7,0.2 L11.7,11 L0,11 Z M0.09,65 L0.09,18.38 L11.61,18.38 L11.61,65 L0.09,65 Z" id="SvgjsPath48740" transform="matrix(1,0,0,1,162.3935987978038,5)" stroke="#000000" stroke-width="1px"></path><path d="M0,11 L0,0.2 L11.7,0.2 L11.7,11 L0,11 Z M0.09,65 L0.09,18.38 L11.61,18.38 L11.61,65 L0.09,65 Z" id="SvgjsPath48738" transform="matrix(1,0,0,1,158.3935987978038,5)" stroke="#000000" stroke-width="1px"></path><path d="M0,11 L0,0.2 L11.7,0.2 L11.7,11 L0,11 Z M0.09,65 L0.09,18.38 L11.61,18.38 L11.61,65 L0.09,65 Z" id="SvgjsPath48736" transform="matrix(1,0,0,1,154.3935987978038,5)" stroke="#000000" stroke-width="1px"></path><path d="M0,11 L0,0.2 L11.7,0.2 L11.7,11 L0,11 Z M0.09,65 L0.09,18.38 L11.61,18.38 L11.61,65 L0.09,65 Z" id="SvgjsPath48734" transform="matrix(1,0,0,1,150.3935987978038,5)" stroke="#000000" stroke-width="1px"></path><path d="M0,11 L0,0.2 L11.7,0.2 L11.7,11 L0,11 Z M0.09,65 L0.09,18.38 L11.61,18.38 L11.61,65 L0.09,65 Z" id="SvgjsPath48732" transform="matrix(1,0,0,1,146.3935987978038,5)" stroke="#000000" stroke-width="1px"></path><path d="M0,11 L0,0.2 L11.7,0.2 L11.7,11 L0,11 Z M0.09,65 L0.09,18.38 L11.61,18.38 L11.61,65 L0.09,65 Z" id="SvgjsPath48730" transform="matrix(1,0,0,1,142.3935987978038,5)" stroke="#000000" stroke-width="1px"></path><path d="M0,11 L0,0.2 L11.7,0.2 L11.7,11 L0,11 Z M0.09,65 L0.09,18.38 L11.61,18.38 L11.61,65 L0.09,65 Z" id="SvgjsPath48728" transform="matrix(1,0,0,1,138.3935987978038,5)" stroke="#000000" stroke-width="1px"></path><path d="M0,11 L0,0.2 L11.7,0.2 L11.7,11 L0,11 Z M0.09,65 L0.09,18.38 L11.61,18.38 L11.61,65 L0.09,65 Z" id="SvgjsPath48726" transform="matrix(1,0,0,1,134.3935987978038,5)" stroke="#000000" stroke-width="1px"></path><path d="M0,11 L0,0.2 L11.7,0.2 L11.7,11 L0,11 Z M0.09,65 L0.09,18.38 L11.61,18.38 L11.61,65 L0.09,65 Z" id="SvgjsPath48724" transform="matrix(1,0,0,1,130.3935987978038,5)" stroke="#000000" stroke-width="1px"></path><path d="M0,11 L0,0.2 L11.7,0.2 L11.7,11 L0,11 Z M0.09,65 L0.09,18.38 L11.61,18.38 L11.61,65 L0.09,65 Z" id="SvgjsPath48722" transform="matrix(1,0,0,1,126.3935987978038,5)" stroke="#000000" stroke-width="1px"></path><path d="M0,11 L0,0.2 L11.7,0.2 L11.7,11 L0,11 Z M0.09,65 L0.09,18.38 L11.61,18.38 L11.61,65 L0.09,65 Z" id="SvgjsPath48720" transform="matrix(1,0,0,1,122.3935987978038,5)" stroke="#000000" stroke-width="1px"></path><path d="M0,11 L0,0.2 L11.7,0.2 L11.7,11 L0,11 Z M0.09,65 L0.09,18.38 L11.61,18.38 L11.61,65 L0.09,65 Z" id="SvgjsPath48718" transform="matrix(1,0,0,1,118.3935987978038,5)" stroke="#000000" stroke-width="1px"></path> <path id="l" d="M0 65 0 0.2 11.52 0.2 11.52 65z" transform="matrix(1,0,0,1,316.14719725228485,5)" stroke="#000000" stroke-width="1px"></path><path id="SvgjsPath48824" d="M0 65 0 0.2 11.52 0.2 11.52 65z" transform="matrix(1,0,0,1,352.14719725228485,5)" stroke="#000000" stroke-width="1px"></path><path id="SvgjsPath48822" d="M0 65 0 0.2 11.52 0.2 11.52 65z" transform="matrix(1,0,0,1,348.14719725228485,5)" stroke="#000000" stroke-width="1px"></path><path id="SvgjsPath48820" d="M0 65 0 0.2 11.52 0.2 11.52 65z" transform="matrix(1,0,0,1,344.14719725228485,5)" stroke="#000000" stroke-width="1px"></path><path id="SvgjsPath48818" d="M0 65 0 0.2 11.52 0.2 11.52 65z" transform="matrix(1,0,0,1,340.14719725228485,5)" stroke="#000000" stroke-width="1px"></path><path id="SvgjsPath48816" d="M0 65 0 0.2 11.52 0.2 11.52 65z" transform="matrix(1,0,0,1,336.14719725228485,5)" stroke="#000000" stroke-width="1px"></path><path id="SvgjsPath48814" d="M0 65 0 0.2 11.52 0.2 11.52 65z" transform="matrix(1,0,0,1,332.14719725228485,5)" stroke="#000000" stroke-width="1px"></path><path id="SvgjsPath48812" d="M0 65 0 0.2 11.52 0.2 11.52 65z" transform="matrix(1,0,0,1,328.14719725228485,5)" stroke="#000000" stroke-width="1px"></path><path id="SvgjsPath48810" d="M0 65 0 0.2 11.52 0.2 11.52 65z" transform="matrix(1,0,0,1,324.14719725228485,5)" stroke="#000000" stroke-width="1px"></path><path id="SvgjsPath48808" d="M0 65 0 0.2 11.52 0.2 11.52 65z" transform="matrix(1,0,0,1,320.14719725228485,5)" stroke="#000000" stroke-width="1px"></path> <path d="M30.51,65 L30.51,59.51 C27.54,63.83 22.77,65.99 16.92,65.99 C7.02,65.99 0,59.78 0,47.63 L0,18.38 L11.61,18.38 L11.61,45.74 C11.61,52.4 15.21,56.09 20.7,56.09 C25.65,56.09 30.24,52.31 30.24,44.12 L30.24,18.38 L41.76,18.38 L41.76,65 L30.51,65 Z" id="u" transform="matrix(1,0,0,1,373.72079635526444,5)" stroke="#000000" stroke-width="1px"></path><path d="M30.51,65 L30.51,59.51 C27.54,63.83 22.77,65.99 16.92,65.99 C7.02,65.99 0,59.78 0,47.63 L0,18.38 L11.61,18.38 L11.61,45.74 C11.61,52.4 15.21,56.09 20.7,56.09 C25.65,56.09 30.24,52.31 30.24,44.12 L30.24,18.38 L41.76,18.38 L41.76,65 L30.51,65 Z" id="SvgjsPath48874" transform="matrix(1,0,0,1,473.72079635526444,5)" stroke="#000000" stroke-width="1px"></path><path d="M30.51,65 L30.51,59.51 C27.54,63.83 22.77,65.99 16.92,65.99 C7.02,65.99 0,59.78 0,47.63 L0,18.38 L11.61,18.38 L11.61,45.74 C11.61,52.4 15.21,56.09 20.7,56.09 C25.65,56.09 30.24,52.31 30.24,44.12 L30.24,18.38 L41.76,18.38 L41.76,65 L30.51,65 Z" id="SvgjsPath48872" transform="matrix(1,0,0,1,469.72079635526444,5)" stroke="#000000" stroke-width="1px"></path><path d="M30.51,65 L30.51,59.51 C27.54,63.83 22.77,65.99 16.92,65.99 C7.02,65.99 0,59.78 0,47.63 L0,18.38 L11.61,18.38 L11.61,45.74 C11.61,52.4 15.21,56.09 20.7,56.09 C25.65,56.09 30.24,52.31 30.24,44.12 L30.24,18.38 L41.76,18.38 L41.76,65 L30.51,65 Z" id="SvgjsPath48870" transform="matrix(1,0,0,1,465.72079635526444,5)" stroke="#000000" stroke-width="1px"></path><path d="M30.51,65 L30.51,59.51 C27.54,63.83 22.77,65.99 16.92,65.99 C7.02,65.99 0,59.78 0,47.63 L0,18.38 L11.61,18.38 L11.61,45.74 C11.61,52.4 15.21,56.09 20.7,56.09 C25.65,56.09 30.24,52.31 30.24,44.12 L30.24,18.38 L41.76,18.38 L41.76,65 L30.51,65 Z" id="SvgjsPath48868" transform="matrix(1,0,0,1,461.72079635526444,5)" stroke="#000000" stroke-width="1px"></path><path d="M30.51,65 L30.51,59.51 C27.54,63.83 22.77,65.99 16.92,65.99 C7.02,65.99 0,59.78 0,47.63 L0,18.38 L11.61,18.38 L11.61,45.74 C11.61,52.4 15.21,56.09 20.7,56.09 C25.65,56.09 30.24,52.31 30.24,44.12 L30.24,18.38 L41.76,18.38 L41.76,65 L30.51,65 Z" id="SvgjsPath48866" transform="matrix(1,0,0,1,457.72079635526444,5)" stroke="#000000" stroke-width="1px"></path><path d="M30.51,65 L30.51,59.51 C27.54,63.83 22.77,65.99 16.92,65.99 C7.02,65.99 0,59.78 0,47.63 L0,18.38 L11.61,18.38 L11.61,45.74 C11.61,52.4 15.21,56.09 20.7,56.09 C25.65,56.09 30.24,52.31 30.24,44.12 L30.24,18.38 L41.76,18.38 L41.76,65 L30.51,65 Z" id="SvgjsPath48864" transform="matrix(1,0,0,1,453.72079635526444,5)" stroke="#000000" stroke-width="1px"></path><path d="M30.51,65 L30.51,59.51 C27.54,63.83 22.77,65.99 16.92,65.99 C7.02,65.99 0,59.78 0,47.63 L0,18.38 L11.61,18.38 L11.61,45.74 C11.61,52.4 15.21,56.09 20.7,56.09 C25.65,56.09 30.24,52.31 30.24,44.12 L30.24,18.38 L41.76,18.38 L41.76,65 L30.51,65 Z" id="SvgjsPath48862" transform="matrix(1,0,0,1,449.72079635526444,5)" stroke="#000000" stroke-width="1px"></path><path d="M30.51,65 L30.51,59.51 C27.54,63.83 22.77,65.99 16.92,65.99 C7.02,65.99 0,59.78 0,47.63 L0,18.38 L11.61,18.38 L11.61,45.74 C11.61,52.4 15.21,56.09 20.7,56.09 C25.65,56.09 30.24,52.31 30.24,44.12 L30.24,18.38 L41.76,18.38 L41.76,65 L30.51,65 Z" id="SvgjsPath48860" transform="matrix(1,0,0,1,445.72079635526444,5)" stroke="#000000" stroke-width="1px"></path><path d="M30.51,65 L30.51,59.51 C27.54,63.83 22.77,65.99 16.92,65.99 C7.02,65.99 0,59.78 0,47.63 L0,18.38 L11.61,18.38 L11.61,45.74 C11.61,52.4 15.21,56.09 20.7,56.09 C25.65,56.09 30.24,52.31 30.24,44.12 L30.24,18.38 L41.76,18.38 L41.76,65 L30.51,65 Z" id="SvgjsPath48858" transform="matrix(1,0,0,1,441.72079635526444,5)" stroke="#000000" stroke-width="1px"></path><path d="M30.51,65 L30.51,59.51 C27.54,63.83 22.77,65.99 16.92,65.99 C7.02,65.99 0,59.78 0,47.63 L0,18.38 L11.61,18.38 L11.61,45.74 C11.61,52.4 15.21,56.09 20.7,56.09 C25.65,56.09 30.24,52.31 30.24,44.12 L30.24,18.38 L41.76,18.38 L41.76,65 L30.51,65 Z" id="SvgjsPath48856" transform="matrix(1,0,0,1,437.72079635526444,5)" stroke="#000000" stroke-width="1px"></path><path d="M30.51,65 L30.51,59.51 C27.54,63.83 22.77,65.99 16.92,65.99 C7.02,65.99 0,59.78 0,47.63 L0,18.38 L11.61,18.38 L11.61,45.74 C11.61,52.4 15.21,56.09 20.7,56.09 C25.65,56.09 30.24,52.31 30.24,44.12 L30.24,18.38 L41.76,18.38 L41.76,65 L30.51,65 Z" id="SvgjsPath48854" transform="matrix(1,0,0,1,433.72079635526444,5)" stroke="#000000" stroke-width="1px"></path><path d="M30.51,65 L30.51,59.51 C27.54,63.83 22.77,65.99 16.92,65.99 C7.02,65.99 0,59.78 0,47.63 L0,18.38 L11.61,18.38 L11.61,45.74 C11.61,52.4 15.21,56.09 20.7,56.09 C25.65,56.09 30.24,52.31 30.24,44.12 L30.24,18.38 L41.76,18.38 L41.76,65 L30.51,65 Z" id="SvgjsPath48852" transform="matrix(1,0,0,1,429.72079635526444,5)" stroke="#000000" stroke-width="1px"></path><path d="M30.51,65 L30.51,59.51 C27.54,63.83 22.77,65.99 16.92,65.99 C7.02,65.99 0,59.78 0,47.63 L0,18.38 L11.61,18.38 L11.61,45.74 C11.61,52.4 15.21,56.09 20.7,56.09 C25.65,56.09 30.24,52.31 30.24,44.12 L30.24,18.38 L41.76,18.38 L41.76,65 L30.51,65 Z" id="SvgjsPath48850" transform="matrix(1,0,0,1,425.72079635526444,5)" stroke="#000000" stroke-width="1px"></path><path d="M30.51,65 L30.51,59.51 C27.54,63.83 22.77,65.99 16.92,65.99 C7.02,65.99 0,59.78 0,47.63 L0,18.38 L11.61,18.38 L11.61,45.74 C11.61,52.4 15.21,56.09 20.7,56.09 C25.65,56.09 30.24,52.31 30.24,44.12 L30.24,18.38 L41.76,18.38 L41.76,65 L30.51,65 Z" id="SvgjsPath48848" transform="matrix(1,0,0,1,421.72079635526444,5)" stroke="#000000" stroke-width="1px"></path><path d="M30.51,65 L30.51,59.51 C27.54,63.83 22.77,65.99 16.92,65.99 C7.02,65.99 0,59.78 0,47.63 L0,18.38 L11.61,18.38 L11.61,45.74 C11.61,52.4 15.21,56.09 20.7,56.09 C25.65,56.09 30.24,52.31 30.24,44.12 L30.24,18.38 L41.76,18.38 L41.76,65 L30.51,65 Z" id="SvgjsPath48846" transform="matrix(1,0,0,1,417.72079635526444,5)" stroke="#000000" stroke-width="1px"></path><path d="M30.51,65 L30.51,59.51 C27.54,63.83 22.77,65.99 16.92,65.99 C7.02,65.99 0,59.78 0,47.63 L0,18.38 L11.61,18.38 L11.61,45.74 C11.61,52.4 15.21,56.09 20.7,56.09 C25.65,56.09 30.24,52.31 30.24,44.12 L30.24,18.38 L41.76,18.38 L41.76,65 L30.51,65 Z" id="SvgjsPath48844" transform="matrix(1,0,0,1,413.72079635526444,5)" stroke="#000000" stroke-width="1px"></path><path d="M30.51,65 L30.51,59.51 C27.54,63.83 22.77,65.99 16.92,65.99 C7.02,65.99 0,59.78 0,47.63 L0,18.38 L11.61,18.38 L11.61,45.74 C11.61,52.4 15.21,56.09 20.7,56.09 C25.65,56.09 30.24,52.31 30.24,44.12 L30.24,18.38 L41.76,18.38 L41.76,65 L30.51,65 Z" id="SvgjsPath48842" transform="matrix(1,0,0,1,409.72079635526444,5)" stroke="#000000" stroke-width="1px"></path><path d="M30.51,65 L30.51,59.51 C27.54,63.83 22.77,65.99 16.92,65.99 C7.02,65.99 0,59.78 0,47.63 L0,18.38 L11.61,18.38 L11.61,45.74 C11.61,52.4 15.21,56.09 20.7,56.09 C25.65,56.09 30.24,52.31 30.24,44.12 L30.24,18.38 L41.76,18.38 L41.76,65 L30.51,65 Z" id="SvgjsPath48840" transform="matrix(1,0,0,1,405.72079635526444,5)" stroke="#000000" stroke-width="1px"></path><path d="M30.51,65 L30.51,59.51 C27.54,63.83 22.77,65.99 16.92,65.99 C7.02,65.99 0,59.78 0,47.63 L0,18.38 L11.61,18.38 L11.61,45.74 C11.61,52.4 15.21,56.09 20.7,56.09 C25.65,56.09 30.24,52.31 30.24,44.12 L30.24,18.38 L41.76,18.38 L41.76,65 L30.51,65 Z" id="SvgjsPath48838" transform="matrix(1,0,0,1,401.72079635526444,5)" stroke="#000000" stroke-width="1px"></path><path d="M30.51,65 L30.51,59.51 C27.54,63.83 22.77,65.99 16.92,65.99 C7.02,65.99 0,59.78 0,47.63 L0,18.38 L11.61,18.38 L11.61,45.74 C11.61,52.4 15.21,56.09 20.7,56.09 C25.65,56.09 30.24,52.31 30.24,44.12 L30.24,18.38 L41.76,18.38 L41.76,65 L30.51,65 Z" id="SvgjsPath48836" transform="matrix(1,0,0,1,397.72079635526444,5)" stroke="#000000" stroke-width="1px"></path><path d="M30.51,65 L30.51,59.51 C27.54,63.83 22.77,65.99 16.92,65.99 C7.02,65.99 0,59.78 0,47.63 L0,18.38 L11.61,18.38 L11.61,45.74 C11.61,52.4 15.21,56.09 20.7,56.09 C25.65,56.09 30.24,52.31 30.24,44.12 L30.24,18.38 L41.76,18.38 L41.76,65 L30.51,65 Z" id="SvgjsPath48834" transform="matrix(1,0,0,1,393.72079635526444,5)" stroke="#000000" stroke-width="1px"></path><path d="M30.51,65 L30.51,59.51 C27.54,63.83 22.77,65.99 16.92,65.99 C7.02,65.99 0,59.78 0,47.63 L0,18.38 L11.61,18.38 L11.61,45.74 C11.61,52.4 15.21,56.09 20.7,56.09 C25.65,56.09 30.24,52.31 30.24,44.12 L30.24,18.38 L41.76,18.38 L41.76,65 L30.51,65 Z" id="SvgjsPath48832" transform="matrix(1,0,0,1,389.72079635526444,5)" stroke="#000000" stroke-width="1px"></path><path d="M30.51,65 L30.51,59.51 C27.54,63.83 22.77,65.99 16.92,65.99 C7.02,65.99 0,59.78 0,47.63 L0,18.38 L11.61,18.38 L11.61,45.74 C11.61,52.4 15.21,56.09 20.7,56.09 C25.65,56.09 30.24,52.31 30.24,44.12 L30.24,18.38 L41.76,18.38 L41.76,65 L30.51,65 Z" id="SvgjsPath48830" transform="matrix(1,0,0,1,385.72079635526444,5)" stroke="#000000" stroke-width="1px"></path><path d="M30.51,65 L30.51,59.51 C27.54,63.83 22.77,65.99 16.92,65.99 C7.02,65.99 0,59.78 0,47.63 L0,18.38 L11.61,18.38 L11.61,45.74 C11.61,52.4 15.21,56.09 20.7,56.09 C25.65,56.09 30.24,52.31 30.24,44.12 L30.24,18.38 L41.76,18.38 L41.76,65 L30.51,65 Z" id="SvgjsPath48828" transform="matrix(1,0,0,1,381.72079635526444,5)" stroke="#000000" stroke-width="1px"></path><path d="M30.51,65 L30.51,59.51 C27.54,63.83 22.77,65.99 16.92,65.99 C7.02,65.99 0,59.78 0,47.63 L0,18.38 L11.61,18.38 L11.61,45.74 C11.61,52.4 15.21,56.09 20.7,56.09 C25.65,56.09 30.24,52.31 30.24,44.12 L30.24,18.38 L41.76,18.38 L41.76,65 L30.51,65 Z" id="SvgjsPath48826" transform="matrix(1,0,0,1,377.72079635526444,5)" stroke="#000000" stroke-width="1px"></path> <path d="M11.52,39.71 L11.52,65 L0,65 L0,18.38 L11.34,18.38 L11.34,23.96 C14.31,19.73 19.35,17.3 25.29,17.3 C35.55,17.3 42.21,23.69 42.21,35.93 L42.21,65 L30.69,65 L30.69,37.64 C30.69,31.25 27.27,27.2 21.42,27.2 C16.11,27.2 11.52,31.25 11.52,39.71 Z" id="n" transform="matrix(1,0,0,1,525.5343933220136,5)" stroke="#000000" stroke-width="1px"></path><path d="M11.52,39.71 L11.52,65 L0,65 L0,18.38 L11.34,18.38 L11.34,23.96 C14.31,19.73 19.35,17.3 25.29,17.3 C35.55,17.3 42.21,23.69 42.21,35.93 L42.21,65 L30.69,65 L30.69,37.64 C30.69,31.25 27.27,27.2 21.42,27.2 C16.11,27.2 11.52,31.25 11.52,39.71 Z" id="SvgjsPath48944" transform="matrix(1,0,0,1,665.5343933220136,5)" stroke="#000000" stroke-width="1px"></path><path d="M11.52,39.71 L11.52,65 L0,65 L0,18.38 L11.34,18.38 L11.34,23.96 C14.31,19.73 19.35,17.3 25.29,17.3 C35.55,17.3 42.21,23.69 42.21,35.93 L42.21,65 L30.69,65 L30.69,37.64 C30.69,31.25 27.27,27.2 21.42,27.2 C16.11,27.2 11.52,31.25 11.52,39.71 Z" id="SvgjsPath48942" transform="matrix(1,0,0,1,661.5343933220136,5)" stroke="#000000" stroke-width="1px"></path><path d="M11.52,39.71 L11.52,65 L0,65 L0,18.38 L11.34,18.38 L11.34,23.96 C14.31,19.73 19.35,17.3 25.29,17.3 C35.55,17.3 42.21,23.69 42.21,35.93 L42.21,65 L30.69,65 L30.69,37.64 C30.69,31.25 27.27,27.2 21.42,27.2 C16.11,27.2 11.52,31.25 11.52,39.71 Z" id="SvgjsPath48940" transform="matrix(1,0,0,1,657.5343933220136,5)" stroke="#000000" stroke-width="1px"></path><path d="M11.52,39.71 L11.52,65 L0,65 L0,18.38 L11.34,18.38 L11.34,23.96 C14.31,19.73 19.35,17.3 25.29,17.3 C35.55,17.3 42.21,23.69 42.21,35.93 L42.21,65 L30.69,65 L30.69,37.64 C30.69,31.25 27.27,27.2 21.42,27.2 C16.11,27.2 11.52,31.25 11.52,39.71 Z" id="SvgjsPath48938" transform="matrix(1,0,0,1,653.5343933220136,5)" stroke="#000000" stroke-width="1px"></path><path d="M11.52,39.71 L11.52,65 L0,65 L0,18.38 L11.34,18.38 L11.34,23.96 C14.31,19.73 19.35,17.3 25.29,17.3 C35.55,17.3 42.21,23.69 42.21,35.93 L42.21,65 L30.69,65 L30.69,37.64 C30.69,31.25 27.27,27.2 21.42,27.2 C16.11,27.2 11.52,31.25 11.52,39.71 Z" id="SvgjsPath48936" transform="matrix(1,0,0,1,649.5343933220136,5)" stroke="#000000" stroke-width="1px"></path><path d="M11.52,39.71 L11.52,65 L0,65 L0,18.38 L11.34,18.38 L11.34,23.96 C14.31,19.73 19.35,17.3 25.29,17.3 C35.55,17.3 42.21,23.69 42.21,35.93 L42.21,65 L30.69,65 L30.69,37.64 C30.69,31.25 27.27,27.2 21.42,27.2 C16.11,27.2 11.52,31.25 11.52,39.71 Z" id="SvgjsPath48934" transform="matrix(1,0,0,1,645.5343933220136,5)" stroke="#000000" stroke-width="1px"></path><path d="M11.52,39.71 L11.52,65 L0,65 L0,18.38 L11.34,18.38 L11.34,23.96 C14.31,19.73 19.35,17.3 25.29,17.3 C35.55,17.3 42.21,23.69 42.21,35.93 L42.21,65 L30.69,65 L30.69,37.64 C30.69,31.25 27.27,27.2 21.42,27.2 C16.11,27.2 11.52,31.25 11.52,39.71 Z" id="SvgjsPath48932" transform="matrix(1,0,0,1,641.5343933220136,5)" stroke="#000000" stroke-width="1px"></path><path d="M11.52,39.71 L11.52,65 L0,65 L0,18.38 L11.34,18.38 L11.34,23.96 C14.31,19.73 19.35,17.3 25.29,17.3 C35.55,17.3 42.21,23.69 42.21,35.93 L42.21,65 L30.69,65 L30.69,37.64 C30.69,31.25 27.27,27.2 21.42,27.2 C16.11,27.2 11.52,31.25 11.52,39.71 Z" id="SvgjsPath48930" transform="matrix(1,0,0,1,637.5343933220136,5)" stroke="#000000" stroke-width="1px"></path><path d="M11.52,39.71 L11.52,65 L0,65 L0,18.38 L11.34,18.38 L11.34,23.96 C14.31,19.73 19.35,17.3 25.29,17.3 C35.55,17.3 42.21,23.69 42.21,35.93 L42.21,65 L30.69,65 L30.69,37.64 C30.69,31.25 27.27,27.2 21.42,27.2 C16.11,27.2 11.52,31.25 11.52,39.71 Z" id="SvgjsPath48928" transform="matrix(1,0,0,1,633.5343933220136,5)" stroke="#000000" stroke-width="1px"></path><path d="M11.52,39.71 L11.52,65 L0,65 L0,18.38 L11.34,18.38 L11.34,23.96 C14.31,19.73 19.35,17.3 25.29,17.3 C35.55,17.3 42.21,23.69 42.21,35.93 L42.21,65 L30.69,65 L30.69,37.64 C30.69,31.25 27.27,27.2 21.42,27.2 C16.11,27.2 11.52,31.25 11.52,39.71 Z" id="SvgjsPath48926" transform="matrix(1,0,0,1,629.5343933220136,5)" stroke="#000000" stroke-width="1px"></path><path d="M11.52,39.71 L11.52,65 L0,65 L0,18.38 L11.34,18.38 L11.34,23.96 C14.31,19.73 19.35,17.3 25.29,17.3 C35.55,17.3 42.21,23.69 42.21,35.93 L42.21,65 L30.69,65 L30.69,37.64 C30.69,31.25 27.27,27.2 21.42,27.2 C16.11,27.2 11.52,31.25 11.52,39.71 Z" id="SvgjsPath48924" transform="matrix(1,0,0,1,625.5343933220136,5)" stroke="#000000" stroke-width="1px"></path><path d="M11.52,39.71 L11.52,65 L0,65 L0,18.38 L11.34,18.38 L11.34,23.96 C14.31,19.73 19.35,17.3 25.29,17.3 C35.55,17.3 42.21,23.69 42.21,35.93 L42.21,65 L30.69,65 L30.69,37.64 C30.69,31.25 27.27,27.2 21.42,27.2 C16.11,27.2 11.52,31.25 11.52,39.71 Z" id="SvgjsPath48922" transform="matrix(1,0,0,1,621.5343933220136,5)" stroke="#000000" stroke-width="1px"></path><path d="M11.52,39.71 L11.52,65 L0,65 L0,18.38 L11.34,18.38 L11.34,23.96 C14.31,19.73 19.35,17.3 25.29,17.3 C35.55,17.3 42.21,23.69 42.21,35.93 L42.21,65 L30.69,65 L30.69,37.64 C30.69,31.25 27.27,27.2 21.42,27.2 C16.11,27.2 11.52,31.25 11.52,39.71 Z" id="SvgjsPath48920" transform="matrix(1,0,0,1,617.5343933220136,5)" stroke="#000000" stroke-width="1px"></path><path d="M11.52,39.71 L11.52,65 L0,65 L0,18.38 L11.34,18.38 L11.34,23.96 C14.31,19.73 19.35,17.3 25.29,17.3 C35.55,17.3 42.21,23.69 42.21,35.93 L42.21,65 L30.69,65 L30.69,37.64 C30.69,31.25 27.27,27.2 21.42,27.2 C16.11,27.2 11.52,31.25 11.52,39.71 Z" id="SvgjsPath48918" transform="matrix(1,0,0,1,613.5343933220136,5)" stroke="#000000" stroke-width="1px"></path><path d="M11.52,39.71 L11.52,65 L0,65 L0,18.38 L11.34,18.38 L11.34,23.96 C14.31,19.73 19.35,17.3 25.29,17.3 C35.55,17.3 42.21,23.69 42.21,35.93 L42.21,65 L30.69,65 L30.69,37.64 C30.69,31.25 27.27,27.2 21.42,27.2 C16.11,27.2 11.52,31.25 11.52,39.71 Z" id="SvgjsPath48916" transform="matrix(1,0,0,1,609.5343933220136,5)" stroke="#000000" stroke-width="1px"></path><path d="M11.52,39.71 L11.52,65 L0,65 L0,18.38 L11.34,18.38 L11.34,23.96 C14.31,19.73 19.35,17.3 25.29,17.3 C35.55,17.3 42.21,23.69 42.21,35.93 L42.21,65 L30.69,65 L30.69,37.64 C30.69,31.25 27.27,27.2 21.42,27.2 C16.11,27.2 11.52,31.25 11.52,39.71 Z" id="SvgjsPath48914" transform="matrix(1,0,0,1,605.5343933220136,5)" stroke="#000000" stroke-width="1px"></path><path d="M11.52,39.71 L11.52,65 L0,65 L0,18.38 L11.34,18.38 L11.34,23.96 C14.31,19.73 19.35,17.3 25.29,17.3 C35.55,17.3 42.21,23.69 42.21,35.93 L42.21,65 L30.69,65 L30.69,37.64 C30.69,31.25 27.27,27.2 21.42,27.2 C16.11,27.2 11.52,31.25 11.52,39.71 Z" id="SvgjsPath48912" transform="matrix(1,0,0,1,601.5343933220136,5)" stroke="#000000" stroke-width="1px"></path><path d="M11.52,39.71 L11.52,65 L0,65 L0,18.38 L11.34,18.38 L11.34,23.96 C14.31,19.73 19.35,17.3 25.29,17.3 C35.55,17.3 42.21,23.69 42.21,35.93 L42.21,65 L30.69,65 L30.69,37.64 C30.69,31.25 27.27,27.2 21.42,27.2 C16.11,27.2 11.52,31.25 11.52,39.71 Z" id="SvgjsPath48910" transform="matrix(1,0,0,1,597.5343933220136,5)" stroke="#000000" stroke-width="1px"></path><path d="M11.52,39.71 L11.52,65 L0,65 L0,18.38 L11.34,18.38 L11.34,23.96 C14.31,19.73 19.35,17.3 25.29,17.3 C35.55,17.3 42.21,23.69 42.21,35.93 L42.21,65 L30.69,65 L30.69,37.64 C30.69,31.25 27.27,27.2 21.42,27.2 C16.11,27.2 11.52,31.25 11.52,39.71 Z" id="SvgjsPath48908" transform="matrix(1,0,0,1,593.5343933220136,5)" stroke="#000000" stroke-width="1px"></path><path d="M11.52,39.71 L11.52,65 L0,65 L0,18.38 L11.34,18.38 L11.34,23.96 C14.31,19.73 19.35,17.3 25.29,17.3 C35.55,17.3 42.21,23.69 42.21,35.93 L42.21,65 L30.69,65 L30.69,37.64 C30.69,31.25 27.27,27.2 21.42,27.2 C16.11,27.2 11.52,31.25 11.52,39.71 Z" id="SvgjsPath48906" transform="matrix(1,0,0,1,589.5343933220136,5)" stroke="#000000" stroke-width="1px"></path><path d="M11.52,39.71 L11.52,65 L0,65 L0,18.38 L11.34,18.38 L11.34,23.96 C14.31,19.73 19.35,17.3 25.29,17.3 C35.55,17.3 42.21,23.69 42.21,35.93 L42.21,65 L30.69,65 L30.69,37.64 C30.69,31.25 27.27,27.2 21.42,27.2 C16.11,27.2 11.52,31.25 11.52,39.71 Z" id="SvgjsPath48904" transform="matrix(1,0,0,1,585.5343933220136,5)" stroke="#000000" stroke-width="1px"></path><path d="M11.52,39.71 L11.52,65 L0,65 L0,18.38 L11.34,18.38 L11.34,23.96 C14.31,19.73 19.35,17.3 25.29,17.3 C35.55,17.3 42.21,23.69 42.21,35.93 L42.21,65 L30.69,65 L30.69,37.64 C30.69,31.25 27.27,27.2 21.42,27.2 C16.11,27.2 11.52,31.25 11.52,39.71 Z" id="SvgjsPath48902" transform="matrix(1,0,0,1,581.5343933220136,5)" stroke="#000000" stroke-width="1px"></path><path d="M11.52,39.71 L11.52,65 L0,65 L0,18.38 L11.34,18.38 L11.34,23.96 C14.31,19.73 19.35,17.3 25.29,17.3 C35.55,17.3 42.21,23.69 42.21,35.93 L42.21,65 L30.69,65 L30.69,37.64 C30.69,31.25 27.27,27.2 21.42,27.2 C16.11,27.2 11.52,31.25 11.52,39.71 Z" id="SvgjsPath48900" transform="matrix(1,0,0,1,577.5343933220136,5)" stroke="#000000" stroke-width="1px"></path><path d="M11.52,39.71 L11.52,65 L0,65 L0,18.38 L11.34,18.38 L11.34,23.96 C14.31,19.73 19.35,17.3 25.29,17.3 C35.55,17.3 42.21,23.69 42.21,35.93 L42.21,65 L30.69,65 L30.69,37.64 C30.69,31.25 27.27,27.2 21.42,27.2 C16.11,27.2 11.52,31.25 11.52,39.71 Z" id="SvgjsPath48898" transform="matrix(1,0,0,1,573.5343933220136,5)" stroke="#000000" stroke-width="1px"></path><path d="M11.52,39.71 L11.52,65 L0,65 L0,18.38 L11.34,18.38 L11.34,23.96 C14.31,19.73 19.35,17.3 25.29,17.3 C35.55,17.3 42.21,23.69 42.21,35.93 L42.21,65 L30.69,65 L30.69,37.64 C30.69,31.25 27.27,27.2 21.42,27.2 C16.11,27.2 11.52,31.25 11.52,39.71 Z" id="SvgjsPath48896" transform="matrix(1,0,0,1,569.5343933220136,5)" stroke="#000000" stroke-width="1px"></path><path d="M11.52,39.71 L11.52,65 L0,65 L0,18.38 L11.34,18.38 L11.34,23.96 C14.31,19.73 19.35,17.3 25.29,17.3 C35.55,17.3 42.21,23.69 42.21,35.93 L42.21,65 L30.69,65 L30.69,37.64 C30.69,31.25 27.27,27.2 21.42,27.2 C16.11,27.2 11.52,31.25 11.52,39.71 Z" id="SvgjsPath48894" transform="matrix(1,0,0,1,565.5343933220136,5)" stroke="#000000" stroke-width="1px"></path><path d="M11.52,39.71 L11.52,65 L0,65 L0,18.38 L11.34,18.38 L11.34,23.96 C14.31,19.73 19.35,17.3 25.29,17.3 C35.55,17.3 42.21,23.69 42.21,35.93 L42.21,65 L30.69,65 L30.69,37.64 C30.69,31.25 27.27,27.2 21.42,27.2 C16.11,27.2 11.52,31.25 11.52,39.71 Z" id="SvgjsPath48892" transform="matrix(1,0,0,1,561.5343933220136,5)" stroke="#000000" stroke-width="1px"></path><path d="M11.52,39.71 L11.52,65 L0,65 L0,18.38 L11.34,18.38 L11.34,23.96 C14.31,19.73 19.35,17.3 25.29,17.3 C35.55,17.3 42.21,23.69 42.21,35.93 L42.21,65 L30.69,65 L30.69,37.64 C30.69,31.25 27.27,27.2 21.42,27.2 C16.11,27.2 11.52,31.25 11.52,39.71 Z" id="SvgjsPath48890" transform="matrix(1,0,0,1,557.5343933220136,5)" stroke="#000000" stroke-width="1px"></path><path d="M11.52,39.71 L11.52,65 L0,65 L0,18.38 L11.34,18.38 L11.34,23.96 C14.31,19.73 19.35,17.3 25.29,17.3 C35.55,17.3 42.21,23.69 42.21,35.93 L42.21,65 L30.69,65 L30.69,37.64 C30.69,31.25 27.27,27.2 21.42,27.2 C16.11,27.2 11.52,31.25 11.52,39.71 Z" id="SvgjsPath48888" transform="matrix(1,0,0,1,553.5343933220136,5)" stroke="#000000" stroke-width="1px"></path><path d="M11.52,39.71 L11.52,65 L0,65 L0,18.38 L11.34,18.38 L11.34,23.96 C14.31,19.73 19.35,17.3 25.29,17.3 C35.55,17.3 42.21,23.69 42.21,35.93 L42.21,65 L30.69,65 L30.69,37.64 C30.69,31.25 27.27,27.2 21.42,27.2 C16.11,27.2 11.52,31.25 11.52,39.71 Z" id="SvgjsPath48886" transform="matrix(1,0,0,1,549.5343933220136,5)" stroke="#000000" stroke-width="1px"></path><path d="M11.52,39.71 L11.52,65 L0,65 L0,18.38 L11.34,18.38 L11.34,23.96 C14.31,19.73 19.35,17.3 25.29,17.3 C35.55,17.3 42.21,23.69 42.21,35.93 L42.21,65 L30.69,65 L30.69,37.64 C30.69,31.25 27.27,27.2 21.42,27.2 C16.11,27.2 11.52,31.25 11.52,39.71 Z" id="SvgjsPath48884" transform="matrix(1,0,0,1,545.5343933220136,5)" stroke="#000000" stroke-width="1px"></path><path d="M11.52,39.71 L11.52,65 L0,65 L0,18.38 L11.34,18.38 L11.34,23.96 C14.31,19.73 19.35,17.3 25.29,17.3 C35.55,17.3 42.21,23.69 42.21,35.93 L42.21,65 L30.69,65 L30.69,37.64 C30.69,31.25 27.27,27.2 21.42,27.2 C16.11,27.2 11.52,31.25 11.52,39.71 Z" id="SvgjsPath48882" transform="matrix(1,0,0,1,541.5343933220136,5)" stroke="#000000" stroke-width="1px"></path><path d="M11.52,39.71 L11.52,65 L0,65 L0,18.38 L11.34,18.38 L11.34,23.96 C14.31,19.73 19.35,17.3 25.29,17.3 C35.55,17.3 42.21,23.69 42.21,35.93 L42.21,65 L30.69,65 L30.69,37.64 C30.69,31.25 27.27,27.2 21.42,27.2 C16.11,27.2 11.52,31.25 11.52,39.71 Z" id="SvgjsPath48880" transform="matrix(1,0,0,1,537.5343933220136,5)" stroke="#000000" stroke-width="1px"></path><path d="M11.52,39.71 L11.52,65 L0,65 L0,18.38 L11.34,18.38 L11.34,23.96 C14.31,19.73 19.35,17.3 25.29,17.3 C35.55,17.3 42.21,23.69 42.21,35.93 L42.21,65 L30.69,65 L30.69,37.64 C30.69,31.25 27.27,27.2 21.42,27.2 C16.11,27.2 11.52,31.25 11.52,39.71 Z" id="SvgjsPath48878" transform="matrix(1,0,0,1,533.5343933220136,5)" stroke="#000000" stroke-width="1px"></path><path d="M11.52,39.71 L11.52,65 L0,65 L0,18.38 L11.34,18.38 L11.34,23.96 C14.31,19.73 19.35,17.3 25.29,17.3 C35.55,17.3 42.21,23.69 42.21,35.93 L42.21,65 L30.69,65 L30.69,37.64 C30.69,31.25 27.27,27.2 21.42,27.2 C16.11,27.2 11.52,31.25 11.52,39.71 Z" id="SvgjsPath48876" transform="matrix(1,0,0,1,529.5343933220136,5)" stroke="#000000" stroke-width="1px"></path> <path d="M24.57,65.99 C10.89,65.99 0,56.54 0,41.42 C0,26.75 11.07,17.3 24.57,17.3 C38.16,17.3 49.05,26.57 49.05,41.42 C49.05,56.36 38.07,65.99 24.57,65.99 Z M24.57,56.27 C32.04,56.27 37.17,50.33 37.17,41.42 C37.17,32.96 32.04,27.02 24.57,27.02 C16.92,27.02 11.88,32.87 11.88,41.42 C11.88,50.24 17.01,56.27 24.57,56.27 Z" id="o" transform="matrix(1,0,0,1,717.7979910517022,5)" stroke="#000000" stroke-width="1px"></path><path d="M24.57,65.99 C10.89,65.99 0,56.54 0,41.42 C0,26.75 11.07,17.3 24.57,17.3 C38.16,17.3 49.05,26.57 49.05,41.42 C49.05,56.36 38.07,65.99 24.57,65.99 Z M24.57,56.27 C32.04,56.27 37.17,50.33 37.17,41.42 C37.17,32.96 32.04,27.02 24.57,27.02 C16.92,27.02 11.88,32.87 11.88,41.42 C11.88,50.24 17.01,56.27 24.57,56.27 Z" id="SvgjsPath48986" transform="matrix(1,0,0,1,801.7979910517022,5)" stroke="#000000" stroke-width="1px"></path><path d="M24.57,65.99 C10.89,65.99 0,56.54 0,41.42 C0,26.75 11.07,17.3 24.57,17.3 C38.16,17.3 49.05,26.57 49.05,41.42 C49.05,56.36 38.07,65.99 24.57,65.99 Z M24.57,56.27 C32.04,56.27 37.17,50.33 37.17,41.42 C37.17,32.96 32.04,27.02 24.57,27.02 C16.92,27.02 11.88,32.87 11.88,41.42 C11.88,50.24 17.01,56.27 24.57,56.27 Z" id="SvgjsPath48984" transform="matrix(1,0,0,1,797.7979910517022,5)" stroke="#000000" stroke-width="1px"></path><path d="M24.57,65.99 C10.89,65.99 0,56.54 0,41.42 C0,26.75 11.07,17.3 24.57,17.3 C38.16,17.3 49.05,26.57 49.05,41.42 C49.05,56.36 38.07,65.99 24.57,65.99 Z M24.57,56.27 C32.04,56.27 37.17,50.33 37.17,41.42 C37.17,32.96 32.04,27.02 24.57,27.02 C16.92,27.02 11.88,32.87 11.88,41.42 C11.88,50.24 17.01,56.27 24.57,56.27 Z" id="SvgjsPath48982" transform="matrix(1,0,0,1,793.7979910517022,5)" stroke="#000000" stroke-width="1px"></path><path d="M24.57,65.99 C10.89,65.99 0,56.54 0,41.42 C0,26.75 11.07,17.3 24.57,17.3 C38.16,17.3 49.05,26.57 49.05,41.42 C49.05,56.36 38.07,65.99 24.57,65.99 Z M24.57,56.27 C32.04,56.27 37.17,50.33 37.17,41.42 C37.17,32.96 32.04,27.02 24.57,27.02 C16.92,27.02 11.88,32.87 11.88,41.42 C11.88,50.24 17.01,56.27 24.57,56.27 Z" id="SvgjsPath48980" transform="matrix(1,0,0,1,789.7979910517022,5)" stroke="#000000" stroke-width="1px"></path><path d="M24.57,65.99 C10.89,65.99 0,56.54 0,41.42 C0,26.75 11.07,17.3 24.57,17.3 C38.16,17.3 49.05,26.57 49.05,41.42 C49.05,56.36 38.07,65.99 24.57,65.99 Z M24.57,56.27 C32.04,56.27 37.17,50.33 37.17,41.42 C37.17,32.96 32.04,27.02 24.57,27.02 C16.92,27.02 11.88,32.87 11.88,41.42 C11.88,50.24 17.01,56.27 24.57,56.27 Z" id="SvgjsPath48978" transform="matrix(1,0,0,1,785.7979910517022,5)" stroke="#000000" stroke-width="1px"></path><path d="M24.57,65.99 C10.89,65.99 0,56.54 0,41.42 C0,26.75 11.07,17.3 24.57,17.3 C38.16,17.3 49.05,26.57 49.05,41.42 C49.05,56.36 38.07,65.99 24.57,65.99 Z M24.57,56.27 C32.04,56.27 37.17,50.33 37.17,41.42 C37.17,32.96 32.04,27.02 24.57,27.02 C16.92,27.02 11.88,32.87 11.88,41.42 C11.88,50.24 17.01,56.27 24.57,56.27 Z" id="SvgjsPath48976" transform="matrix(1,0,0,1,781.7979910517022,5)" stroke="#000000" stroke-width="1px"></path><path d="M24.57,65.99 C10.89,65.99 0,56.54 0,41.42 C0,26.75 11.07,17.3 24.57,17.3 C38.16,17.3 49.05,26.57 49.05,41.42 C49.05,56.36 38.07,65.99 24.57,65.99 Z M24.57,56.27 C32.04,56.27 37.17,50.33 37.17,41.42 C37.17,32.96 32.04,27.02 24.57,27.02 C16.92,27.02 11.88,32.87 11.88,41.42 C11.88,50.24 17.01,56.27 24.57,56.27 Z" id="SvgjsPath48974" transform="matrix(1,0,0,1,777.7979910517022,5)" stroke="#000000" stroke-width="1px"></path><path d="M24.57,65.99 C10.89,65.99 0,56.54 0,41.42 C0,26.75 11.07,17.3 24.57,17.3 C38.16,17.3 49.05,26.57 49.05,41.42 C49.05,56.36 38.07,65.99 24.57,65.99 Z M24.57,56.27 C32.04,56.27 37.17,50.33 37.17,41.42 C37.17,32.96 32.04,27.02 24.57,27.02 C16.92,27.02 11.88,32.87 11.88,41.42 C11.88,50.24 17.01,56.27 24.57,56.27 Z" id="SvgjsPath48972" transform="matrix(1,0,0,1,773.7979910517022,5)" stroke="#000000" stroke-width="1px"></path><path d="M24.57,65.99 C10.89,65.99 0,56.54 0,41.42 C0,26.75 11.07,17.3 24.57,17.3 C38.16,17.3 49.05,26.57 49.05,41.42 C49.05,56.36 38.07,65.99 24.57,65.99 Z M24.57,56.27 C32.04,56.27 37.17,50.33 37.17,41.42 C37.17,32.96 32.04,27.02 24.57,27.02 C16.92,27.02 11.88,32.87 11.88,41.42 C11.88,50.24 17.01,56.27 24.57,56.27 Z" id="SvgjsPath48970" transform="matrix(1,0,0,1,769.7979910517022,5)" stroke="#000000" stroke-width="1px"></path><path d="M24.57,65.99 C10.89,65.99 0,56.54 0,41.42 C0,26.75 11.07,17.3 24.57,17.3 C38.16,17.3 49.05,26.57 49.05,41.42 C49.05,56.36 38.07,65.99 24.57,65.99 Z M24.57,56.27 C32.04,56.27 37.17,50.33 37.17,41.42 C37.17,32.96 32.04,27.02 24.57,27.02 C16.92,27.02 11.88,32.87 11.88,41.42 C11.88,50.24 17.01,56.27 24.57,56.27 Z" id="SvgjsPath48968" transform="matrix(1,0,0,1,765.7979910517022,5)" stroke="#000000" stroke-width="1px"></path><path d="M24.57,65.99 C10.89,65.99 0,56.54 0,41.42 C0,26.75 11.07,17.3 24.57,17.3 C38.16,17.3 49.05,26.57 49.05,41.42 C49.05,56.36 38.07,65.99 24.57,65.99 Z M24.57,56.27 C32.04,56.27 37.17,50.33 37.17,41.42 C37.17,32.96 32.04,27.02 24.57,27.02 C16.92,27.02 11.88,32.87 11.88,41.42 C11.88,50.24 17.01,56.27 24.57,56.27 Z" id="SvgjsPath48966" transform="matrix(1,0,0,1,761.7979910517022,5)" stroke="#000000" stroke-width="1px"></path><path d="M24.57,65.99 C10.89,65.99 0,56.54 0,41.42 C0,26.75 11.07,17.3 24.57,17.3 C38.16,17.3 49.05,26.57 49.05,41.42 C49.05,56.36 38.07,65.99 24.57,65.99 Z M24.57,56.27 C32.04,56.27 37.17,50.33 37.17,41.42 C37.17,32.96 32.04,27.02 24.57,27.02 C16.92,27.02 11.88,32.87 11.88,41.42 C11.88,50.24 17.01,56.27 24.57,56.27 Z" id="SvgjsPath48964" transform="matrix(1,0,0,1,757.7979910517022,5)" stroke="#000000" stroke-width="1px"></path><path d="M24.57,65.99 C10.89,65.99 0,56.54 0,41.42 C0,26.75 11.07,17.3 24.57,17.3 C38.16,17.3 49.05,26.57 49.05,41.42 C49.05,56.36 38.07,65.99 24.57,65.99 Z M24.57,56.27 C32.04,56.27 37.17,50.33 37.17,41.42 C37.17,32.96 32.04,27.02 24.57,27.02 C16.92,27.02 11.88,32.87 11.88,41.42 C11.88,50.24 17.01,56.27 24.57,56.27 Z" id="SvgjsPath48962" transform="matrix(1,0,0,1,753.7979910517022,5)" stroke="#000000" stroke-width="1px"></path><path d="M24.57,65.99 C10.89,65.99 0,56.54 0,41.42 C0,26.75 11.07,17.3 24.57,17.3 C38.16,17.3 49.05,26.57 49.05,41.42 C49.05,56.36 38.07,65.99 24.57,65.99 Z M24.57,56.27 C32.04,56.27 37.17,50.33 37.17,41.42 C37.17,32.96 32.04,27.02 24.57,27.02 C16.92,27.02 11.88,32.87 11.88,41.42 C11.88,50.24 17.01,56.27 24.57,56.27 Z" id="SvgjsPath48960" transform="matrix(1,0,0,1,749.7979910517022,5)" stroke="#000000" stroke-width="1px"></path><path d="M24.57,65.99 C10.89,65.99 0,56.54 0,41.42 C0,26.75 11.07,17.3 24.57,17.3 C38.16,17.3 49.05,26.57 49.05,41.42 C49.05,56.36 38.07,65.99 24.57,65.99 Z M24.57,56.27 C32.04,56.27 37.17,50.33 37.17,41.42 C37.17,32.96 32.04,27.02 24.57,27.02 C16.92,27.02 11.88,32.87 11.88,41.42 C11.88,50.24 17.01,56.27 24.57,56.27 Z" id="SvgjsPath48958" transform="matrix(1,0,0,1,745.7979910517022,5)" stroke="#000000" stroke-width="1px"></path><path d="M24.57,65.99 C10.89,65.99 0,56.54 0,41.42 C0,26.75 11.07,17.3 24.57,17.3 C38.16,17.3 49.05,26.57 49.05,41.42 C49.05,56.36 38.07,65.99 24.57,65.99 Z M24.57,56.27 C32.04,56.27 37.17,50.33 37.17,41.42 C37.17,32.96 32.04,27.02 24.57,27.02 C16.92,27.02 11.88,32.87 11.88,41.42 C11.88,50.24 17.01,56.27 24.57,56.27 Z" id="SvgjsPath48956" transform="matrix(1,0,0,1,741.7979910517022,5)" stroke="#000000" stroke-width="1px"></path><path d="M24.57,65.99 C10.89,65.99 0,56.54 0,41.42 C0,26.75 11.07,17.3 24.57,17.3 C38.16,17.3 49.05,26.57 49.05,41.42 C49.05,56.36 38.07,65.99 24.57,65.99 Z M24.57,56.27 C32.04,56.27 37.17,50.33 37.17,41.42 C37.17,32.96 32.04,27.02 24.57,27.02 C16.92,27.02 11.88,32.87 11.88,41.42 C11.88,50.24 17.01,56.27 24.57,56.27 Z" id="SvgjsPath48954" transform="matrix(1,0,0,1,737.7979910517022,5)" stroke="#000000" stroke-width="1px"></path><path d="M24.57,65.99 C10.89,65.99 0,56.54 0,41.42 C0,26.75 11.07,17.3 24.57,17.3 C38.16,17.3 49.05,26.57 49.05,41.42 C49.05,56.36 38.07,65.99 24.57,65.99 Z M24.57,56.27 C32.04,56.27 37.17,50.33 37.17,41.42 C37.17,32.96 32.04,27.02 24.57,27.02 C16.92,27.02 11.88,32.87 11.88,41.42 C11.88,50.24 17.01,56.27 24.57,56.27 Z" id="SvgjsPath48952" transform="matrix(1,0,0,1,733.7979910517022,5)" stroke="#000000" stroke-width="1px"></path><path d="M24.57,65.99 C10.89,65.99 0,56.54 0,41.42 C0,26.75 11.07,17.3 24.57,17.3 C38.16,17.3 49.05,26.57 49.05,41.42 C49.05,56.36 38.07,65.99 24.57,65.99 Z M24.57,56.27 C32.04,56.27 37.17,50.33 37.17,41.42 C37.17,32.96 32.04,27.02 24.57,27.02 C16.92,27.02 11.88,32.87 11.88,41.42 C11.88,50.24 17.01,56.27 24.57,56.27 Z" id="SvgjsPath48950" transform="matrix(1,0,0,1,729.7979910517022,5)" stroke="#000000" stroke-width="1px"></path><path d="M24.57,65.99 C10.89,65.99 0,56.54 0,41.42 C0,26.75 11.07,17.3 24.57,17.3 C38.16,17.3 49.05,26.57 49.05,41.42 C49.05,56.36 38.07,65.99 24.57,65.99 Z M24.57,56.27 C32.04,56.27 37.17,50.33 37.17,41.42 C37.17,32.96 32.04,27.02 24.57,27.02 C16.92,27.02 11.88,32.87 11.88,41.42 C11.88,50.24 17.01,56.27 24.57,56.27 Z" id="SvgjsPath48948" transform="matrix(1,0,0,1,725.7979910517022,5)" stroke="#000000" stroke-width="1px"></path><path d="M24.57,65.99 C10.89,65.99 0,56.54 0,41.42 C0,26.75 11.07,17.3 24.57,17.3 C38.16,17.3 49.05,26.57 49.05,41.42 C49.05,56.36 38.07,65.99 24.57,65.99 Z M24.57,56.27 C32.04,56.27 37.17,50.33 37.17,41.42 C37.17,32.96 32.04,27.02 24.57,27.02 C16.92,27.02 11.88,32.87 11.88,41.42 C11.88,50.24 17.01,56.27 24.57,56.27 Z" id="SvgjsPath48946" transform="matrix(1,0,0,1,721.7979910517022,5)" stroke="#000000" stroke-width="1px"></path> </g> </svg></svg>
