<svg xmlns="http://www.w3.org/2000/svg" viewBox="0 0 352 185">
  <g fill="none" fill-rule="evenodd" transform="translate(0 6)">
    <path fill="var(--c0, #202126)" fill-rule="nonzero" d="M179.54 71.84a9 9 0 00-1.91.21 7.74 7.74 0 00-1.83.64 4 4 0 00-1.4 1.15 2.81 2.81 0 001.49 4.38 29.19 29.19 0 007 1.45 17.65 17.65 0 018.93 3.36 9.22 9.22 0 013.4 7.7c0 4.993-1.743 8.907-5.23 11.74s-8.323 4.25-14.51 4.25a21.41 21.41 0 01-8-1.36 17.6 17.6 0 01-5.53-3.4 14.1 14.1 0 01-3.28-4.51 12.64 12.64 0 01-1.19-4.68l10.55-2.55a7.32 7.32 0 002.38 4.81c1.42 1.333 3.577 2 6.47 2a13.24 13.24 0 005.19-.94 3.34 3.34 0 002.21-3.32 3.24 3.24 0 00-1.7-2.85c-1.133-.707-3.233-1.203-6.3-1.49a17.19 17.19 0 01-9.74-3.49 9.73 9.73 0 01-3.62-7.91 13.4 13.4 0 011.49-6.38 14 14 0 014-4.68 17.87 17.87 0 015.74-2.85 23.84 23.84 0 016.85-1 20.07 20.07 0 017.4 1.19 15 15 0 014.85 3 11.8 11.8 0 012.76 3.87 15.47 15.47 0 011.15 3.87l-10.45 2.72a5.27 5.27 0 00-2.13-3.62 8.32 8.32 0 00-5.04-1.31zm39.25 1.68h-11.91V63.33H221l3.91-18.55h10.72l-3.92 18.55h14.63v10.19h-16.83l-4.8 21.89.85.6 11.4-7.83 5.36 8-12.3 8.34a12 12 0 01-6.89 2.21 10.08 10.08 0 01-3.57-.64 8.74 8.74 0 01-5-4.72 9.22 9.22 0 01-.77-3.83 8 8 0 01.08-1.23c.053-.367.137-.863.25-1.49l4.67-21.3zm63.58 31a11.67 11.67 0 01-3.49 1.7 12.69 12.69 0 01-3.49.51 10.08 10.08 0 01-3.57-.64 9.25 9.25 0 01-3-1.79 8 8 0 01-2-2.81 9.16 9.16 0 01-.72-3.7 12.25 12.25 0 01.34-3l5.1-21.36-.85-.6-11.4 7.83-5.36-8 12.34-8.34a11.68 11.68 0 013.49-1.7 12.68 12.68 0 013.49-.51 10.11 10.11 0 013.57.64 9.28 9.28 0 013 1.79 8 8 0 012 2.81 9.18 9.18 0 01.72 3.7 12.32 12.32 0 01-.34 3l-5.11 21.36.85.6 11.4-7.83 5.36 8-12.33 8.34zm7.4-53.69a8 8 0 01-.64 3.19 7.68 7.68 0 01-1.74 2.55 8.57 8.57 0 01-2.59 1.7 7.82 7.82 0 01-3.11.64 7.72 7.72 0 01-3.15-.64 8.69 8.69 0 01-2.55-1.7 7.67 7.67 0 01-1.74-2.55 8.29 8.29 0 010-6.38 7.71 7.71 0 011.74-2.55 8.73 8.73 0 012.55-1.7 7.7 7.7 0 013.15-.64 7.8 7.8 0 013.11.64 8.61 8.61 0 012.59 1.7 7.72 7.72 0 011.74 2.55 8 8 0 01.64 3.18v.01zm42.8 48.58h-1.53a21.9 21.9 0 01-2.13 2.77 13 13 0 01-2.85 2.34 14.44 14.44 0 01-4 1.62 21.53 21.53 0 01-5.36.6 14 14 0 01-10.17-4.25 14.71 14.71 0 01-3.15-4.94 17.39 17.39 0 01-1.15-6.47 37.71 37.71 0 011.57-10.93 28.53 28.53 0 014.64-9.23 23.16 23.16 0 017.49-6.38 21 21 0 0110.12-2.38c3.46 0 6.057.71 7.79 2.13a10.62 10.62 0 013.53 5.19h1.53l1.28-6.13h10.72l-10.47 48.92.85.6 4.76-3.23 5.36 8-5.7 3.74a11.59 11.59 0 01-3.53 1.7 13.14 13.14 0 01-3.46.44 9.35 9.35 0 01-6.51-2.42 8.55 8.55 0 01-2.68-6.68c.017-.946.13-1.887.34-2.81l2.71-12.2zm-10.38-2.89a12.38 12.38 0 005.62-1.28 14.13 14.13 0 004.42-3.45 15.84 15.84 0 002.89-5 17 17 0 001-5.87 8.39 8.39 0 00-2.34-6.34 9 9 0 00-6.51-2.25 12.31 12.31 0 00-5.66 1.32 14 14 0 00-4.42 3.49 16.25 16.25 0 00-2.85 5 17 17 0 00-1 5.87c0 2.78.78 4.893 2.34 6.34a9.21 9.21 0 006.51 2.17z">
    </path>
    <path stroke="var(--c1, tomato)" stroke-linecap="round" stroke-linejoin="round" stroke-width="11.38" d="M96.45 70.41c25.89-7.67 59 2.55 80.49-31.66 25.23-40.1 60.94-44.68 85.27-31.62 34.2 18.36 31.67 68.27 7.58 90.7-27.42 25.53-29.58 52.91-13.68 67.24 22.95 20.68 47.1-2.67 35.85-19.93-8.94-13.73-31.93-25.89-98.1 6.9-65.32 32.36-129.62 19-133.91-32.42-1.03-12.53 2.88-39.25 36.5-49.21h0z">
    </path>
    <path fill="var(--c0, #202126)" fill-rule="nonzero" d="M.3 104.52l12.41-58.55h35.31v10.72H21.65l-2.94 13.62h23.06v10.72H16.46l-2.89 13.78h25.14v10.71H.3v-1zm77.08 1.69a12.69 12.69 0 01-3.49.51 10.08 10.08 0 01-3.57-.64 9.25 9.25 0 01-3-1.79 8 8 0 01-2-2.81 9.16 9.16 0 01-.72-3.7 12.93 12.93 0 01.34-3l9.27-38.71-.85-.6-11.4 7.83-5.36-8 12.34-8.34a11.68 11.68 0 013.49-1.7 12.67 12.67 0 013.49-.51 10.09 10.09 0 013.57.64 9.26 9.26 0 013 1.79 8.05 8.05 0 012 2.81 9.17 9.17 0 01.72 3.7 14.62 14.62 0 01-.34 3L75.6 95.4l.85.6 11.4-7.83 5.36 8-12.34 8.35a11.68 11.68 0 01-3.49 1.69zm62.88-10.8l.85.6 4.08-2.89 5.36 8-5 3.4a12.39 12.39 0 01-7 2.21 9.85 9.85 0 01-5.79-1.79 7.85 7.85 0 01-3.23-5H128a15.69 15.69 0 01-1.79 2.68 9.7 9.7 0 01-2.5 2.1 14.05 14.05 0 01-3.49 1.45 17.83 17.83 0 01-4.72.55 14.23 14.23 0 01-6.13-1.32 15.05 15.05 0 01-4.89-3.66 17.4 17.4 0 01-3.28-5.49 19.3 19.3 0 01-1.19-6.89 35.69 35.69 0 011.53-10.63 26.73 26.73 0 014.42-8.64 20.46 20.46 0 0116.59-8 12.9 12.9 0 017.4 1.87 9.08 9.08 0 013.66 4.94h1.53l1.19-5.62h10.72l-6.79 32.13zm-20.55 1.11a11.54 11.54 0 009.4-4.51 15.06 15.06 0 002.42-4.81c.574-1.89.86-3.855.85-5.83a9.27 9.27 0 00-2.3-6.51 7.91 7.91 0 00-6.13-2.51 11.68 11.68 0 00-5.45 1.23 12.16 12.16 0 00-4 3.28 14.54 14.54 0 00-2.47 4.81 19.7 19.7 0 00-.85 5.83 10.06 10.06 0 002.08 6.3c1.38 1.813 3.53 2.72 6.45 2.72z">
    </path>
  </g>
</svg>